<svg width="36" height="36" viewBox="0 0 36 36" fill="none" xmlns="http://www.w3.org/2000/svg">
<rect width="36" height="36" rx="18" fill="#E9E9EB"/>
<path d="M11.6646 24.4575C10.1338 24.4575 9.36475 23.7031 9.36475 22.1943V13.2441C9.36475 11.7354 10.1338 10.9736 11.6646 10.9736H24.3354C25.8735 10.9736 26.6353 11.7354 26.6353 13.2441V22.1943C26.6353 23.7031 25.8735 24.4575 24.3354 24.4575H11.6646ZM21.5303 17.7119L25.4561 21.396V13.3101C25.4561 12.5483 25.0459 12.1528 24.3208 12.1528H11.6792C10.9468 12.1528 10.5439 12.5483 10.5439 13.3101V21.396L12.7266 19.4258C13.0269 19.1475 13.3418 19.0156 13.6714 19.0156C14.0156 19.0156 14.3525 19.1548 14.6602 19.4331L16.0151 20.6562L19.3257 17.6973C19.6626 17.397 20.0215 17.2578 20.4243 17.2578C20.8198 17.2578 21.208 17.4116 21.5303 17.7119ZM14.8213 17.7852C13.8691 17.7852 13.0928 17.0088 13.0928 16.0566C13.0928 15.1118 13.8691 14.3281 14.8213 14.3281C15.7661 14.3281 16.5425 15.1118 16.5425 16.0566C16.5425 17.0088 15.7661 17.7852 14.8213 17.7852Z" fill="#3C3C43" fill-opacity="0.6"/>
</svg>
