<svg width="10" height="9" viewBox="0 0 10 9" fill="none" xmlns="http://www.w3.org/2000/svg">
<path d="M5 8.30859C7.26562 8.30859 9.125 6.44531 9.125 4.17969C9.125 1.91797 7.26172 0.0546875 5 0.0546875C2.73438 0.0546875 0.875 1.91797 0.875 4.17969C0.875 6.44531 2.73828 8.30859 5 8.30859ZM5 7.28125C3.28516 7.28125 1.90625 5.89844 1.90625 4.17969C1.90625 2.46484 3.28125 1.08203 5 1.08203C6.71484 1.08203 8.09766 2.46484 8.09766 4.17969C8.09766 5.89844 6.71875 7.28125 5 7.28125ZM3.14453 4.77734H5C5.21094 4.77734 5.375 4.60938 5.375 4.39844V1.96875C5.375 1.75781 5.21094 1.59375 5 1.59375C4.78906 1.59375 4.62109 1.75781 4.62109 1.96875V4.02344H3.14453C2.93359 4.02344 2.76953 4.1875 2.76953 4.39844C2.76953 4.60938 2.93359 4.77734 3.14453 4.77734Z" fill="white"/>
</svg>
