<svg version="1.1" xmlns="http://www.w3.org/2000/svg" xmlns:xlink="http://www.w3.org/1999/xlink" width="14.8066" height="13.0635">
 <g>
  <rect height="13.0635" opacity="0" width="14.8066" x="0" y="0"/>
  <path d="M1.86621 12.9883L12.4619 12.9883C13.624 12.9883 14.3281 12.1816 14.3281 11.1357C14.3281 10.8145 14.2324 10.4795 14.0615 10.1787L8.75684 0.936523C8.40137 0.314453 7.79297 0 7.16406 0C6.53516 0 5.91992 0.314453 5.57129 0.936523L0.266602 10.1787C0.0820312 10.4863 0 10.8145 0 11.1357C0 12.1816 0.704102 12.9883 1.86621 12.9883ZM1.87305 11.915C1.39453 11.915 1.10742 11.5459 1.10742 11.1289C1.10742 10.999 1.13477 10.835 1.20996 10.6914L6.50781 1.45605C6.65137 1.20312 6.91113 1.09375 7.16406 1.09375C7.41699 1.09375 7.66992 1.20312 7.81348 1.45605L13.1113 10.6982C13.1865 10.8418 13.2207 10.999 13.2207 11.1289C13.2207 11.5459 12.9199 11.915 12.4482 11.915Z"/>
  <path d="M7.16406 8.38086C7.49219 8.38086 7.68359 8.18945 7.69043 7.83398L7.78613 4.23145C7.79297 3.88281 7.51953 3.62305 7.15723 3.62305C6.78809 3.62305 6.52832 3.87598 6.53516 4.22461L6.62402 7.83398C6.63086 8.18262 6.82227 8.38086 7.16406 8.38086ZM7.16406 10.6025C7.56055 10.6025 7.90234 10.2881 7.90234 9.8916C7.90234 9.48828 7.56738 9.18066 7.16406 9.18066C6.76074 9.18066 6.42578 9.49512 6.42578 9.8916C6.42578 10.2812 6.76758 10.6025 7.16406 10.6025Z"/>
 </g>
</svg>
