<svg
  width="9"
  height="9"
  viewBox="0 0 9 9"
  fill="none"
  xmlns="http://www.w3.org/2000/svg"
>
<path
    d="M1.76562 8.27344C1.36328 8.27344 1.23828 7.93359 1.44531 7.66016C1.62109 7.42969 1.94922 6.96875 2.125 6.62891C0.890625 6.05859 0.0703125 4.92188 0.0703125 3.64062C0.0703125 1.67578 2.03906 0.0898438 4.5 0.0898438C6.96094 0.0898438 8.92969 1.67578 8.92969 3.64062C8.92969 5.6875 6.88672 7.25 4.16406 7.17578C3.37109 7.74219 2.29297 8.27344 1.76562 8.27344ZM2.17578 7.625C2.53125 7.48047 3.22656 7.05078 3.70703 6.70312C3.85547 6.58594 3.98047 6.53516 4.14453 6.53516C4.30078 6.53906 4.42188 6.54297 4.5 6.54297C6.60938 6.54297 8.28516 5.23828 8.28516 3.64062C8.28516 2.03906 6.60938 0.734375 4.5 0.734375C2.39453 0.734375 0.71875 2.03906 0.71875 3.64062C0.71875 4.67969 1.42188 5.58984 2.64844 6.16016C2.89844 6.27734 2.92578 6.45703 2.81641 6.66016C2.68359 6.91016 2.37109 7.31641 2.15234 7.58594C2.13281 7.61328 2.14453 7.63672 2.17578 7.625Z"
  />
</svg>
