<svg width="48" height="48" viewBox="0 0 48 48" xmlns="http://www.w3.org/2000/svg">
    <path
        d="m22.15089,41.16882c-0.94275,0 -1.71234,-0.38483 -2.63583,-1.25064l-15.18007,-14.33338c-0.7311,-0.69265 -0.98121,-1.42375 -0.98121,-2.05866c0,-0.65414 0.23087,-1.36601 0.98121,-2.07786l15.18007,-14.19883c1.01972,-0.96201 1.6546,-1.36601 2.59735,-1.36601c1.34679,0 2.28951,1.05817 2.28951,2.34722l0,7.27257l0.55797,0c13.85248,0 19.87454,8.86948 19.87454,23.08762c0,1.65465 -0.96195,2.57799 -1.9817,2.57799c-0.80802,0 -1.693,-0.19229 -2.36653,-1.42375c-3.36683,-6.29131 -8.06128,-8.17675 -15.52631,-8.17675l-0.55797,0l0,7.34956c0,1.289 -0.94272,2.25095 -2.25103,2.25095zm-1.09666,-4.1365c0.15391,0 0.2501,-0.11532 0.2501,-0.28843l0,-7.44586c0,-0.44252 0.21165,-0.63491 0.65416,-0.63491l2.5781,0c9.13871,0 14.96847,3.17455 17.2386,8.0038c0.05779,0.13449 0.09641,0.19229 0.17337,0.19229c0.09614,0 0.15393,-0.05779 0.15393,-0.21172c-0.38483,-9.08102 -4.3674,-18.23909 -17.5659,-18.23909l-2.5781,0c-0.44252,0 -0.65416,-0.19239 -0.65416,-0.63491l0,-7.63812c0,-0.15393 -0.0962,-0.26936 -0.26933,-0.26936c-0.11545,0 -0.2309,0.07697 -0.3271,0.15391l-13.6986,13.14066c-0.15391,0.13468 -0.21165,0.25013 -0.21165,0.36555c0,0.11545 0.05774,0.21165 0.21165,0.36555l13.71786,12.96752c0.0962,0.11532 0.21162,0.17311 0.32707,0.17311z" />
</svg>