<svg width="36" height="36" viewBox="0 0 36 36" fill="none" xmlns="http://www.w3.org/2000/svg">
    <rect width="36" height="36" rx="18" fill="#F7ECEF"/>
    <path d="M16.9233 24.4282C16.5645 24.4282 16.2715 24.2817 15.9199 23.9521L10.1411 18.4956C9.86279 18.2319 9.76758 17.9536 9.76758 17.7119C9.76758 17.4629 9.85547 17.1919 10.1411 16.9209L15.9199 11.5156C16.3081 11.1494 16.5498 10.9956 16.9087 10.9956C17.4214 10.9956 17.7803 11.3984 17.7803 11.8892V14.6577H17.9927C23.2661 14.6577 25.5586 18.0342 25.5586 23.4468C25.5586 24.0767 25.1924 24.4282 24.8042 24.4282C24.4966 24.4282 24.1597 24.355 23.9033 23.8862C22.6216 21.4912 20.8345 20.7734 17.9927 20.7734H17.7803V23.5713C17.7803 24.062 17.4214 24.4282 16.9233 24.4282ZM16.5059 22.8535C16.5645 22.8535 16.6011 22.8096 16.6011 22.7437V19.9092C16.6011 19.7407 16.6816 19.6675 16.8501 19.6675H17.8315C21.3105 19.6675 23.5298 20.876 24.394 22.7144C24.416 22.7656 24.4307 22.7876 24.46 22.7876C24.4966 22.7876 24.5186 22.7656 24.5186 22.707C24.3721 19.25 22.856 15.7637 17.8315 15.7637H16.8501C16.6816 15.7637 16.6011 15.6904 16.6011 15.522V12.6143C16.6011 12.5557 16.5645 12.5117 16.4985 12.5117C16.4546 12.5117 16.4106 12.541 16.374 12.5703L11.1592 17.5728C11.1006 17.624 11.0786 17.668 11.0786 17.7119C11.0786 17.7559 11.1006 17.7925 11.1592 17.8511L16.3813 22.7876C16.418 22.8315 16.4619 22.8535 16.5059 22.8535Z" fill="#968B8A" fill-opacity="1"/>
    </svg>
    