<svg width="36" height="36" viewBox="0 0 36 36" fill="none" xmlns="http://www.w3.org/2000/svg">
<rect width="36" height="36" rx="18" fill="#E95C43"/>
<path d="M18 25.8511C18.4316 25.8511 18.7388 25.5522 18.7388 25.1206V14.1885L18.6807 12.4204L21.1626 15.1431L23.0552 17.0024C23.188 17.1353 23.3789 17.2017 23.5781 17.2017C23.9932 17.2017 24.292 16.8862 24.292 16.4795C24.292 16.2803 24.2256 16.106 24.0679 15.9399L18.5562 10.4199C18.3984 10.2539 18.2075 10.1709 18 10.1709C17.7925 10.1709 17.6016 10.2539 17.4438 10.4199L11.9404 15.9399C11.7827 16.106 11.708 16.2803 11.708 16.4795C11.708 16.8862 12.0068 17.2017 12.4219 17.2017C12.6211 17.2017 12.8203 17.1353 12.9448 17.0024L14.8374 15.1431L17.3276 12.4121L17.2612 14.1885V25.1206C17.2612 25.5522 17.5684 25.8511 18 25.8511Z" fill="white"/>
</svg>
