<svg width="36" height="36" viewBox="0 0 36 36" fill="none" xmlns="http://www.w3.org/2000/svg">
<rect width="36" height="36" rx="18" fill="#262628"/>
<path d="M17.9927 19.7041C17.6777 19.7041 17.4141 19.4404 17.4141 19.1328V11.6108L17.458 10.5122L16.96 11.0322L15.854 12.2188C15.7515 12.3359 15.5903 12.3945 15.4512 12.3945C15.1436 12.3945 14.9238 12.1748 14.9238 11.8745C14.9238 11.7207 14.9824 11.6035 15.0923 11.4937L17.5679 9.10596C17.7217 8.95947 17.8462 8.9082 17.9927 8.9082C18.1465 8.9082 18.271 8.95947 18.4175 9.10596L20.8931 11.4937C21.0029 11.6035 21.0688 11.7207 21.0688 11.8745C21.0688 12.1748 20.8345 12.3945 20.5342 12.3945C20.3877 12.3945 20.2412 12.3359 20.1387 12.2188L19.0254 11.0322L18.5347 10.5122L18.5786 11.6108V19.1328C18.5786 19.4404 18.3076 19.7041 17.9927 19.7041ZM13.7959 25.439C12.2651 25.439 11.4961 24.6772 11.4961 23.1685V15.8589C11.4961 14.3501 12.2651 13.5884 13.7959 13.5884H16.0005V14.7676H13.8105C13.0781 14.7676 12.6753 15.1631 12.6753 15.9248V23.1025C12.6753 23.8643 13.0781 24.2598 13.8105 24.2598H22.1748C22.8999 24.2598 23.3174 23.8643 23.3174 23.1025V15.9248C23.3174 15.1631 22.8999 14.7676 22.1748 14.7676H19.9922V13.5884H22.1968C23.7275 13.5884 24.4966 14.3501 24.4966 15.8589V23.1685C24.4966 24.6772 23.7275 25.439 22.1968 25.439H13.7959Z" fill="#EBEBF5" fill-opacity="0.6"/>
</svg>
