<svg width="36" height="37" viewBox="0 0 36 37" fill="none" xmlns="http://www.w3.org/2000/svg">
<rect y="0.445312" width="36" height="36" rx="18" fill="#E9E9EB"/>
<path d="M17.9927 20.1494C17.6777 20.1494 17.4141 19.8857 17.4141 19.5781V12.0562L17.458 10.9575L16.96 11.4775L15.854 12.6641C15.7515 12.7812 15.5903 12.8398 15.4512 12.8398C15.1436 12.8398 14.9238 12.6201 14.9238 12.3198C14.9238 12.166 14.9824 12.0488 15.0923 11.939L17.5679 9.55127C17.7217 9.40479 17.8462 9.35352 17.9927 9.35352C18.1465 9.35352 18.271 9.40479 18.4175 9.55127L20.8931 11.939C21.0029 12.0488 21.0688 12.166 21.0688 12.3198C21.0688 12.6201 20.8345 12.8398 20.5342 12.8398C20.3877 12.8398 20.2412 12.7812 20.1387 12.6641L19.0254 11.4775L18.5347 10.9575L18.5786 12.0562V19.5781C18.5786 19.8857 18.3076 20.1494 17.9927 20.1494ZM13.7959 25.8843C12.2651 25.8843 11.4961 25.1226 11.4961 23.6138V16.3042C11.4961 14.7954 12.2651 14.0337 13.7959 14.0337H16.0005V15.2129H13.8105C13.0781 15.2129 12.6753 15.6084 12.6753 16.3701V23.5479C12.6753 24.3096 13.0781 24.7051 13.8105 24.7051H22.1748C22.8999 24.7051 23.3174 24.3096 23.3174 23.5479V16.3701C23.3174 15.6084 22.8999 15.2129 22.1748 15.2129H19.9922V14.0337H22.1968C23.7275 14.0337 24.4966 14.7954 24.4966 16.3042V23.6138C24.4966 25.1226 23.7275 25.8843 22.1968 25.8843H13.7959Z" fill="#3C3C43" fill-opacity="0.6"/>
</svg>
