<svg width="36" height="36" viewBox="0 0 36 36" fill="none" xmlns="http://www.w3.org/2000/svg">
<rect width="36" height="36" rx="18" fill="#FFFBFF"/>
<rect width="36" height="36" rx="18" fill="#9C4235" fill-opacity="0.08"/>
<path d="M12.583 27.1654C12.2497 27.1654 11.958 27.0404 11.708 26.7904C11.458 26.5404 11.333 26.2487 11.333 25.9154V15.3112C11.333 14.9779 11.458 14.6862 11.708 14.4362C11.958 14.1862 12.2497 14.0612 12.583 14.0612H16.1038V15.3112H12.583V25.9154H23.4163V15.3112H19.8538V14.0612H23.4163C23.7497 14.0612 24.0413 14.1862 24.2913 14.4362C24.5413 14.6862 24.6663 14.9779 24.6663 15.3112V25.9154C24.6663 26.2487 24.5413 26.5404 24.2913 26.7904C24.0413 27.0404 23.7497 27.1654 23.4163 27.1654H12.583ZM17.3538 20.7695V11.2487L15.5205 13.082L14.6247 12.1862L17.9788 8.83203L21.333 12.1862L20.4372 13.082L18.6038 11.2487V20.7695H17.3538Z" fill="#998E8D"/>
</svg>
