<svg width="36" height="36" viewBox="0 0 36 36" fill="none" xmlns="http://www.w3.org/2000/svg">
<rect width="36" height="36" rx="18" fill="#262628"/>
<path d="M12.3823 23.3369C12.126 23.0879 12.1333 22.6631 12.3823 22.4141L17.0698 17.7192L12.3823 13.0317C12.1333 12.7827 12.1333 12.3652 12.3823 12.1089C12.6313 11.8452 13.0635 11.8525 13.3125 12.1089L18 16.7964L22.6875 12.1089C22.9365 11.8525 23.3613 11.8525 23.6177 12.1089C23.874 12.3579 23.8667 12.7827 23.6177 13.0317L18.9302 17.7192L23.6177 22.4141C23.8667 22.6631 23.8667 23.0806 23.6177 23.3369C23.3687 23.5933 22.9365 23.5859 22.6875 23.3369L18 18.6494L13.3125 23.3369C13.0635 23.5859 12.6387 23.5859 12.3823 23.3369Z" fill="#EBEBF5" fill-opacity="0.6"/>
</svg>
