<svg width="56" height="57" viewBox="0 0 56 57" fill="none" xmlns="http://www.w3.org/2000/svg">
<path d="M0 28.7095C0 13.2455 12.536 0.709473 28 0.709473C43.464 0.709473 56 13.2455 56 28.7095C56 44.1734 43.464 56.7095 28 56.7095C12.536 56.7095 0 44.1734 0 28.7095Z" fill="black"/>
<path d="M38.25 29.2485C38.25 29.5415 38.1328 29.811 37.8984 30.0337L30.1055 37.8032C29.8711 38.0259 29.625 38.1313 29.3438 38.1313C28.7695 38.1313 28.3242 37.7095 28.3242 37.1235C28.3242 36.8423 28.418 36.561 28.6055 36.3853L31.2305 33.7134L35.1797 30.1157L32.3438 30.2915H17.5195C16.9102 30.2915 16.4883 29.8579 16.4883 29.2485C16.4883 28.6392 16.9102 28.2056 17.5195 28.2056H32.3438L35.168 28.3813L31.2305 24.7837L28.6055 22.1118C28.418 21.9243 28.3242 21.6548 28.3242 21.3735C28.3242 20.7876 28.7695 20.3657 29.3438 20.3657C29.625 20.3657 29.8711 20.4595 30.1289 20.7173L37.8984 28.4634C38.1328 28.686 38.25 28.9556 38.25 29.2485Z" fill="white"/>
</svg>
