<svg width="36" height="36" viewBox="0 0 36 36" fill="none" xmlns="http://www.w3.org/2000/svg">
<rect width="36" height="36" rx="18" fill="#262628"/>
<path d="M18 26.0103C17.6924 26.0103 17.4507 25.7612 17.4507 25.4536V24.2158C15.5024 24.0474 13.8545 23.0146 13.437 21.3374C13.4004 21.2056 13.3857 21.0811 13.3857 20.9712C13.3857 20.5391 13.6348 20.2534 14.0596 20.2534C14.4258 20.2534 14.6675 20.4512 14.792 20.8394C15.1069 22.0479 16.0298 22.7583 17.4507 22.9121V18.166L17.2529 18.1221C14.7993 17.5288 13.6567 16.4448 13.6567 14.7163C13.6567 12.79 15.2095 11.4204 17.4507 11.2153V10.0288C17.4507 9.72119 17.6924 9.47949 18 9.47949C18.3076 9.47949 18.5566 9.72119 18.5566 10.0288V11.2153C20.4609 11.3838 21.9404 12.4604 22.3433 14.0132C22.3799 14.145 22.3945 14.2695 22.3945 14.3867C22.3945 14.8115 22.1528 15.0898 21.7207 15.0898C21.3545 15.0898 21.1055 14.8921 20.9883 14.5112C20.6294 13.354 19.7871 12.6655 18.5566 12.519V17.0234L18.8643 17.0967C21.4497 17.7192 22.6069 18.7959 22.6069 20.605C22.6069 22.7876 20.7979 24.0547 18.5566 24.2231V25.4536C18.5566 25.7612 18.3076 26.0103 18 26.0103ZM15.085 14.6284C15.085 15.6978 15.8394 16.3789 17.4507 16.7598V12.519C15.9492 12.7021 15.085 13.603 15.085 14.6284ZM18.6445 18.4517L18.5566 18.4297V22.9268C20.2192 22.7949 21.1787 21.9893 21.1787 20.7075C21.1787 19.521 20.4683 18.8911 18.6445 18.4517Z" fill="#EBEBF5" fill-opacity="0.6"/>
</svg>
