<svg width="33" height="33" viewBox="0 0 33 33" fill="none" xmlns="http://www.w3.org/2000/svg">
<rect x="1" y="0.790527" width="31" height="31" rx="15.5" stroke="#B2B2B2"/>
<path d="M10.1641 22.6968C10.0495 22.5874 9.97396 22.4572 9.9375 22.3062C9.90104 22.1551 9.90104 22.0041 9.9375 21.853C9.97917 21.702 10.0547 21.5744 10.1641 21.4702L14.9609 16.6577L10.1641 11.853C10.0547 11.7489 9.98177 11.6213 9.94531 11.4702C9.90885 11.3192 9.90885 11.1681 9.94531 11.0171C9.98177 10.866 10.0547 10.7358 10.1641 10.6265C10.2786 10.5119 10.4115 10.4364 10.5625 10.3999C10.7135 10.3634 10.8646 10.3634 11.0156 10.3999C11.1667 10.4364 11.2969 10.5093 11.4062 10.6187L16.2109 15.4233L21.0078 10.6187C21.1172 10.5041 21.2474 10.4312 21.3984 10.3999C21.5495 10.3634 21.6979 10.3634 21.8438 10.3999C21.9948 10.4364 22.1302 10.5119 22.25 10.6265C22.3594 10.7358 22.4323 10.866 22.4688 11.0171C22.5104 11.1681 22.5104 11.3192 22.4688 11.4702C22.4323 11.616 22.3594 11.7463 22.25 11.8608L17.4531 16.6577L22.25 21.4624C22.3594 21.577 22.4323 21.7098 22.4688 21.8608C22.5052 22.0067 22.5052 22.1551 22.4688 22.3062C22.4323 22.4572 22.3594 22.5874 22.25 22.6968C22.1354 22.8114 22.0026 22.8869 21.8516 22.9233C21.7005 22.9598 21.5495 22.9598 21.3984 22.9233C21.2474 22.8869 21.1172 22.814 21.0078 22.7046L16.2109 17.8999L11.4062 22.7046C11.2969 22.814 11.1667 22.8869 11.0156 22.9233C10.8698 22.9598 10.7188 22.9598 10.5625 22.9233C10.4115 22.8869 10.2786 22.8114 10.1641 22.6968Z" fill="black"/>
</svg>
